<?xml version="1.0" encoding="UTF-8" standalone="no"?>
<!DOCTYPE svg PUBLIC "-//W3C//DTD SVG 1.1//EN"
 "http://www.w3.org/Graphics/SVG/1.1/DTD/svg11.dtd">
<!-- Generated by graphviz version 2.36.0 (20140111.2315)
 -->
<!-- Title: G Pages: 1 -->
<svg width="780pt" height="1844pt"
 viewBox="0.00 0.00 780.00 1844.00" xmlns="http://www.w3.org/2000/svg" xmlns:xlink="http://www.w3.org/1999/xlink">
<g id="graph0" class="graph" transform="scale(1 1) rotate(0) translate(4 1840)">
<title>G</title>
<polygon fill="white" stroke="none" points="-4,4 -4,-1840 776,-1840 776,4 -4,4"/>
<g id="clust1" class="cluster"><title>cluster_Global</title>
<path fill="none" stroke="gray" d="M538,-8C538,-8 752,-8 752,-8 758,-8 764,-14 764,-20 764,-20 764,-1816 764,-1816 764,-1822 758,-1828 752,-1828 752,-1828 538,-1828 538,-1828 532,-1828 526,-1822 526,-1816 526,-1816 526,-20 526,-20 526,-14 532,-8 538,-8"/>
<text text-anchor="middle" x="645" y="-1815.2" font-family="Times,serif" font-size="11.00" fill="gray">Global</text>
</g>
<g id="clust2" class="cluster"><title>cluster_\Blogger</title>
<path fill="none" stroke="gray" d="M546,-1148C546,-1148 744,-1148 744,-1148 750,-1148 756,-1154 756,-1160 756,-1160 756,-1788 756,-1788 756,-1794 750,-1800 744,-1800 744,-1800 546,-1800 546,-1800 540,-1800 534,-1794 534,-1788 534,-1788 534,-1160 534,-1160 534,-1154 540,-1148 546,-1148"/>
<text text-anchor="middle" x="645" y="-1787.2" font-family="Times,serif" font-size="11.00" fill="gray">Blogger</text>
</g>
<g id="clust3" class="cluster"><title>cluster_\Blogger\BlogBundle</title>
<path fill="none" stroke="gray" d="M554,-1156C554,-1156 736,-1156 736,-1156 742,-1156 748,-1162 748,-1168 748,-1168 748,-1760 748,-1760 748,-1766 742,-1772 736,-1772 736,-1772 554,-1772 554,-1772 548,-1772 542,-1766 542,-1760 542,-1760 542,-1168 542,-1168 542,-1162 548,-1156 554,-1156"/>
<text text-anchor="middle" x="645" y="-1759.2" font-family="Times,serif" font-size="11.00" fill="gray">BlogBundle</text>
</g>
<g id="clust4" class="cluster"><title>cluster_\Blogger\BlogBundle\Controller</title>
<path fill="none" stroke="gray" d="M583,-1618C583,-1618 707,-1618 707,-1618 713,-1618 719,-1624 719,-1630 719,-1630 719,-1732 719,-1732 719,-1738 713,-1744 707,-1744 707,-1744 583,-1744 583,-1744 577,-1744 571,-1738 571,-1732 571,-1732 571,-1630 571,-1630 571,-1624 577,-1618 583,-1618"/>
<text text-anchor="middle" x="645" y="-1731.2" font-family="Times,serif" font-size="11.00" fill="gray">Controller</text>
</g>
<g id="clust5" class="cluster"><title>cluster_\Blogger\BlogBundle\Entity</title>
<path fill="none" stroke="gray" d="M617,-1538C617,-1538 673,-1538 673,-1538 679,-1538 685,-1544 685,-1550 685,-1550 685,-1598 685,-1598 685,-1604 679,-1610 673,-1610 673,-1610 617,-1610 617,-1610 611,-1610 605,-1604 605,-1598 605,-1598 605,-1550 605,-1550 605,-1544 611,-1538 617,-1538"/>
<text text-anchor="middle" x="645" y="-1597.2" font-family="Times,serif" font-size="11.00" fill="gray">Entity</text>
</g>
<g id="clust6" class="cluster"><title>cluster_\Blogger\BlogBundle\DependencyInjection</title>
<path fill="none" stroke="gray" d="M573,-1404C573,-1404 717,-1404 717,-1404 723,-1404 729,-1410 729,-1416 729,-1416 729,-1518 729,-1518 729,-1524 723,-1530 717,-1530 717,-1530 573,-1530 573,-1530 567,-1530 561,-1524 561,-1518 561,-1518 561,-1416 561,-1416 561,-1410 567,-1404 573,-1404"/>
<text text-anchor="middle" x="645" y="-1517.2" font-family="Times,serif" font-size="11.00" fill="gray">DependencyInjection</text>
</g>
<g id="clust7" class="cluster"><title>cluster_\Blogger\BlogBundle\Form</title>
<path fill="none" stroke="gray" d="M603,-1324C603,-1324 687,-1324 687,-1324 693,-1324 699,-1330 699,-1336 699,-1336 699,-1384 699,-1384 699,-1390 693,-1396 687,-1396 687,-1396 603,-1396 603,-1396 597,-1396 591,-1390 591,-1384 591,-1384 591,-1336 591,-1336 591,-1330 597,-1324 603,-1324"/>
<text text-anchor="middle" x="645" y="-1383.2" font-family="Times,serif" font-size="11.00" fill="gray">Form</text>
</g>
<g id="clust8" class="cluster"><title>cluster_\Blogger\BlogBundle\Tests</title>
<path fill="none" stroke="gray" d="M562,-1208C562,-1208 728,-1208 728,-1208 734,-1208 740,-1214 740,-1220 740,-1220 740,-1304 740,-1304 740,-1310 734,-1316 728,-1316 728,-1316 562,-1316 562,-1316 556,-1316 550,-1310 550,-1304 550,-1304 550,-1220 550,-1220 550,-1214 556,-1208 562,-1208"/>
<text text-anchor="middle" x="645" y="-1303.2" font-family="Times,serif" font-size="11.00" fill="gray">Tests</text>
</g>
<g id="clust9" class="cluster"><title>cluster_\Blogger\BlogBundle\Tests\Controller</title>
<path fill="none" stroke="gray" d="M570,-1216C570,-1216 720,-1216 720,-1216 726,-1216 732,-1222 732,-1228 732,-1228 732,-1276 732,-1276 732,-1282 726,-1288 720,-1288 720,-1288 570,-1288 570,-1288 564,-1288 558,-1282 558,-1276 558,-1276 558,-1228 558,-1228 558,-1222 564,-1216 570,-1216"/>
<text text-anchor="middle" x="645" y="-1275.2" font-family="Times,serif" font-size="11.00" fill="gray">Controller</text>
</g>
<g id="clust10" class="cluster"><title>cluster_\AppBundle</title>
<path fill="none" stroke="gray" d="M554,-872C554,-872 736,-872 736,-872 742,-872 748,-878 748,-884 748,-884 748,-1128 748,-1128 748,-1134 742,-1140 736,-1140 736,-1140 554,-1140 554,-1140 548,-1140 542,-1134 542,-1128 542,-1128 542,-884 542,-884 542,-878 548,-872 554,-872"/>
<text text-anchor="middle" x="645" y="-1127.2" font-family="Times,serif" font-size="11.00" fill="gray">AppBundle</text>
</g>
<g id="clust11" class="cluster"><title>cluster_\AppBundle\Controller</title>
<path fill="none" stroke="gray" d="M583,-1040C583,-1040 707,-1040 707,-1040 713,-1040 719,-1046 719,-1052 719,-1052 719,-1100 719,-1100 719,-1106 713,-1112 707,-1112 707,-1112 583,-1112 583,-1112 577,-1112 571,-1106 571,-1100 571,-1100 571,-1052 571,-1052 571,-1046 577,-1040 583,-1040"/>
<text text-anchor="middle" x="645" y="-1099.2" font-family="Times,serif" font-size="11.00" fill="gray">Controller</text>
</g>
<g id="clust12" class="cluster"><title>cluster_\AppBundle\Tests</title>
<path fill="none" stroke="gray" d="M562,-924C562,-924 728,-924 728,-924 734,-924 740,-930 740,-936 740,-936 740,-1020 740,-1020 740,-1026 734,-1032 728,-1032 728,-1032 562,-1032 562,-1032 556,-1032 550,-1026 550,-1020 550,-1020 550,-936 550,-936 550,-930 556,-924 562,-924"/>
<text text-anchor="middle" x="645" y="-1019.2" font-family="Times,serif" font-size="11.00" fill="gray">Tests</text>
</g>
<g id="clust13" class="cluster"><title>cluster_\AppBundle\Tests\Controller</title>
<path fill="none" stroke="gray" d="M570,-932C570,-932 720,-932 720,-932 726,-932 732,-938 732,-944 732,-944 732,-992 732,-992 732,-998 726,-1004 720,-1004 720,-1004 570,-1004 570,-1004 564,-1004 558,-998 558,-992 558,-992 558,-944 558,-944 558,-938 564,-932 570,-932"/>
<text text-anchor="middle" x="645" y="-991.2" font-family="Times,serif" font-size="11.00" fill="gray">Controller</text>
</g>
<g id="clust14" class="cluster"><title>cluster_\Acme</title>
<path fill="none" stroke="gray" d="M556,-16C556,-16 734,-16 734,-16 740,-16 746,-22 746,-28 746,-28 746,-852 746,-852 746,-858 740,-864 734,-864 734,-864 556,-864 556,-864 550,-864 544,-858 544,-852 544,-852 544,-28 544,-28 544,-22 550,-16 556,-16"/>
<text text-anchor="middle" x="645" y="-851.2" font-family="Times,serif" font-size="11.00" fill="gray">Acme</text>
</g>
<g id="clust15" class="cluster"><title>cluster_\Acme\DemoBundle</title>
<path fill="none" stroke="gray" d="M564,-24C564,-24 726,-24 726,-24 732,-24 738,-30 738,-36 738,-36 738,-824 738,-824 738,-830 732,-836 726,-836 726,-836 564,-836 564,-836 558,-836 552,-830 552,-824 552,-824 552,-36 552,-36 552,-30 558,-24 564,-24"/>
<text text-anchor="middle" x="645" y="-823.2" font-family="Times,serif" font-size="11.00" fill="gray">DemoBundle</text>
</g>
<g id="clust16" class="cluster"><title>cluster_\Acme\DemoBundle\EventListener</title>
<path fill="none" stroke="gray" d="M580,-736C580,-736 710,-736 710,-736 716,-736 722,-742 722,-748 722,-748 722,-796 722,-796 722,-802 716,-808 710,-808 710,-808 580,-808 580,-808 574,-808 568,-802 568,-796 568,-796 568,-748 568,-748 568,-742 574,-736 580,-736"/>
<text text-anchor="middle" x="645" y="-795.2" font-family="Times,serif" font-size="11.00" fill="gray">EventListener</text>
</g>
<g id="clust17" class="cluster"><title>cluster_\Acme\DemoBundle\Command</title>
<path fill="none" stroke="gray" d="M583,-148C583,-148 707,-148 707,-148 713,-148 719,-154 719,-160 719,-160 719,-208 719,-208 719,-214 713,-220 707,-220 707,-220 583,-220 583,-220 577,-220 571,-214 571,-208 571,-208 571,-160 571,-160 571,-154 577,-148 583,-148"/>
<text text-anchor="middle" x="645" y="-207.2" font-family="Times,serif" font-size="11.00" fill="gray">Command</text>
</g>
<g id="clust18" class="cluster"><title>cluster_\Acme\DemoBundle\Controller</title>
<path fill="none" stroke="gray" d="M583,-548C583,-548 707,-548 707,-548 713,-548 719,-554 719,-560 719,-560 719,-716 719,-716 719,-722 713,-728 707,-728 707,-728 583,-728 583,-728 577,-728 571,-722 571,-716 571,-716 571,-560 571,-560 571,-554 577,-548 583,-548"/>
<text text-anchor="middle" x="645" y="-715.2" font-family="Times,serif" font-size="11.00" fill="gray">Controller</text>
</g>
<g id="clust19" class="cluster"><title>cluster_\Acme\DemoBundle\Twig</title>
<path fill="none" stroke="gray" d="M589,-32C589,-32 701,-32 701,-32 707,-32 713,-38 713,-44 713,-44 713,-128 713,-128 713,-134 707,-140 701,-140 701,-140 589,-140 589,-140 583,-140 577,-134 577,-128 577,-128 577,-44 577,-44 577,-38 583,-32 589,-32"/>
<text text-anchor="middle" x="645" y="-127.2" font-family="Times,serif" font-size="11.00" fill="gray">Twig</text>
</g>
<g id="clust20" class="cluster"><title>cluster_\Acme\DemoBundle\Twig\Extension</title>
<path fill="none" stroke="gray" d="M597,-40C597,-40 693,-40 693,-40 699,-40 705,-46 705,-52 705,-52 705,-100 705,-100 705,-106 699,-112 693,-112 693,-112 597,-112 597,-112 591,-112 585,-106 585,-100 585,-100 585,-52 585,-52 585,-46 591,-40 597,-40"/>
<text text-anchor="middle" x="645" y="-99.2" font-family="Times,serif" font-size="11.00" fill="gray">Extension</text>
</g>
<g id="clust21" class="cluster"><title>cluster_\Acme\DemoBundle\DependencyInjection</title>
<path fill="none" stroke="gray" d="M583,-468C583,-468 707,-468 707,-468 713,-468 719,-474 719,-480 719,-480 719,-528 719,-528 719,-534 713,-540 707,-540 707,-540 583,-540 583,-540 577,-540 571,-534 571,-528 571,-528 571,-480 571,-480 571,-474 577,-468 583,-468"/>
<text text-anchor="middle" x="645" y="-527.2" font-family="Times,serif" font-size="11.00" fill="gray">DependencyInjection</text>
</g>
<g id="clust22" class="cluster"><title>cluster_\Acme\DemoBundle\Form</title>
<path fill="none" stroke="gray" d="M603,-388C603,-388 687,-388 687,-388 693,-388 699,-394 699,-400 699,-400 699,-448 699,-448 699,-454 693,-460 687,-460 687,-460 603,-460 603,-460 597,-460 591,-454 591,-448 591,-448 591,-400 591,-400 591,-394 597,-388 603,-388"/>
<text text-anchor="middle" x="645" y="-447.2" font-family="Times,serif" font-size="11.00" fill="gray">Form</text>
</g>
<g id="clust23" class="cluster"><title>cluster_\Acme\DemoBundle\Tests</title>
<path fill="none" stroke="gray" d="M572,-272C572,-272 718,-272 718,-272 724,-272 730,-278 730,-284 730,-284 730,-368 730,-368 730,-374 724,-380 718,-380 718,-380 572,-380 572,-380 566,-380 560,-374 560,-368 560,-368 560,-284 560,-284 560,-278 566,-272 572,-272"/>
<text text-anchor="middle" x="645" y="-367.2" font-family="Times,serif" font-size="11.00" fill="gray">Tests</text>
</g>
<g id="clust24" class="cluster"><title>cluster_\Acme\DemoBundle\Tests\Controller</title>
<path fill="none" stroke="gray" d="M580,-280C580,-280 710,-280 710,-280 716,-280 722,-286 722,-292 722,-292 722,-340 722,-340 722,-346 716,-352 710,-352 710,-352 580,-352 580,-352 574,-352 568,-346 568,-340 568,-340 568,-292 568,-292 568,-286 574,-280 580,-280"/>
<text text-anchor="middle" x="645" y="-339.2" font-family="Times,serif" font-size="11.00" fill="gray">Controller</text>
</g>
<!-- \\Blogger\\BlogBundle\\Controller\\DefaultController -->
<g id="node1" class="node"><title>\\Blogger\\BlogBundle\\Controller\\DefaultController</title>
<polygon fill="none" stroke="black" points="710.5,-1716 579.5,-1716 579.5,-1680 710.5,-1680 710.5,-1716"/>
<text text-anchor="middle" x="645" y="-1695.2" font-family="Courier,monospace" font-size="11.00">DefaultController</text>
</g>
<!-- \\Symfony\\Bundle\\FrameworkBundle\\Controller\\Controller -->
<g id="node22" class="node"><title>\\Symfony\\Bundle\\FrameworkBundle\\Controller\\Controller</title>
<ellipse fill="none" stroke="black" cx="247" cy="-1090" rx="219.861" ry="18"/>
<text text-anchor="middle" x="247" y="-1086.3" font-family="Times,serif" font-size="14.00" fill="gray">\Symfony\Bundle\FrameworkBundle\Controller\Controller</text>
</g>
<!-- \\Blogger\\BlogBundle\\Controller\\DefaultController&#45;&gt;\\Symfony\\Bundle\\FrameworkBundle\\Controller\\Controller -->
<g id="edge1" class="edge"><title>\\Blogger\\BlogBundle\\Controller\\DefaultController&#45;&gt;\\Symfony\\Bundle\\FrameworkBundle\\Controller\\Controller</title>
<path fill="none" stroke="black" d="M579.402,-1696.89C559.731,-1693.3 539.71,-1685.8 526,-1671 460.649,-1600.45 528.729,-1546.68 494,-1457 439.085,-1315.19 321.693,-1172.93 271.524,-1115.95"/>
<polygon fill="none" stroke="black" points="273.88,-1113.33 264.625,-1108.18 268.644,-1117.98 273.88,-1113.33"/>
</g>
<!-- \\Blogger\\BlogBundle\\Controller\\PageController -->
<g id="node2" class="node"><title>\\Blogger\\BlogBundle\\Controller\\PageController</title>
<polygon fill="none" stroke="black" points="700.5,-1662 589.5,-1662 589.5,-1626 700.5,-1626 700.5,-1662"/>
<text text-anchor="middle" x="645" y="-1641.2" font-family="Courier,monospace" font-size="11.00">PageController</text>
</g>
<!-- \\Blogger\\BlogBundle\\Controller\\PageController&#45;&gt;\\Symfony\\Bundle\\FrameworkBundle\\Controller\\Controller -->
<g id="edge2" class="edge"><title>\\Blogger\\BlogBundle\\Controller\\PageController&#45;&gt;\\Symfony\\Bundle\\FrameworkBundle\\Controller\\Controller</title>
<path fill="none" stroke="black" d="M589.198,-1642.42C566.743,-1638.95 542.262,-1631.06 526,-1614 476.865,-1562.45 521.455,-1522.71 494,-1457 435.231,-1316.35 319.463,-1172.91 270.605,-1115.77"/>
<polygon fill="none" stroke="black" points="273.073,-1113.27 263.896,-1107.98 267.767,-1117.84 273.073,-1113.27"/>
</g>
<!-- \\Blogger\\BlogBundle\\Entity\\Enquiry -->
<g id="node3" class="node"><title>\\Blogger\\BlogBundle\\Entity\\Enquiry</title>
<polygon fill="none" stroke="black" points="677,-1582 613,-1582 613,-1546 677,-1546 677,-1582"/>
<text text-anchor="middle" x="645" y="-1561.2" font-family="Courier,monospace" font-size="11.00">Enquiry</text>
</g>
<!-- \\Blogger\\BlogBundle\\DependencyInjection\\BloggerBlogExtension -->
<g id="node4" class="node"><title>\\Blogger\\BlogBundle\\DependencyInjection\\BloggerBlogExtension</title>
<polygon fill="none" stroke="black" points="721,-1448 569,-1448 569,-1412 721,-1412 721,-1448"/>
<text text-anchor="middle" x="645" y="-1427.2" font-family="Courier,monospace" font-size="11.00">BloggerBlogExtension</text>
</g>
<!-- \\Symfony\\Component\\HttpKernel\\DependencyInjection\\Extension -->
<g id="node24" class="node"><title>\\Symfony\\Component\\HttpKernel\\DependencyInjection\\Extension</title>
<ellipse fill="none" stroke="black" cx="247" cy="-1036" rx="246.956" ry="18"/>
<text text-anchor="middle" x="247" y="-1032.3" font-family="Times,serif" font-size="14.00" fill="gray">\Symfony\Component\HttpKernel\DependencyInjection\Extension</text>
</g>
<!-- \\Blogger\\BlogBundle\\DependencyInjection\\BloggerBlogExtension&#45;&gt;\\Symfony\\Component\\HttpKernel\\DependencyInjection\\Extension -->
<g id="edge4" class="edge"><title>\\Blogger\\BlogBundle\\DependencyInjection\\BloggerBlogExtension&#45;&gt;\\Symfony\\Component\\HttpKernel\\DependencyInjection\\Extension</title>
<path fill="none" stroke="black" d="M568.966,-1425.17C552.649,-1420.59 537,-1412.84 526,-1400 477.065,-1342.87 546.802,-1116.58 494,-1063 489.036,-1057.96 483.693,-1053.46 478.041,-1049.45"/>
<polygon fill="none" stroke="black" points="479.835,-1046.44 469.546,-1043.91 476.013,-1052.3 479.835,-1046.44"/>
</g>
<!-- \\Blogger\\BlogBundle\\DependencyInjection\\Configuration -->
<g id="node5" class="node"><title>\\Blogger\\BlogBundle\\DependencyInjection\\Configuration</title>
<polygon fill="none" stroke="black" points="697,-1502 593,-1502 593,-1466 697,-1466 697,-1502"/>
<text text-anchor="middle" x="645" y="-1481.2" font-family="Courier,monospace" font-size="11.00">Configuration</text>
</g>
<!-- \\Symfony\\Component\\Config\\Definition\\ConfigurationInterface -->
<g id="node25" class="node"><title>\\Symfony\\Component\\Config\\Definition\\ConfigurationInterface</title>
<ellipse fill="none" stroke="black" cx="247" cy="-1484" rx="237.758" ry="18"/>
<text text-anchor="middle" x="247" y="-1480.3" font-family="Times,serif" font-size="14.00" fill="gray">\Symfony\Component\Config\Definition\ConfigurationInterface</text>
</g>
<!-- \\Blogger\\BlogBundle\\DependencyInjection\\Configuration&#45;&gt;\\Symfony\\Component\\Config\\Definition\\ConfigurationInterface -->
<g id="edge5" class="edge"><title>\\Blogger\\BlogBundle\\DependencyInjection\\Configuration&#45;&gt;\\Symfony\\Component\\Config\\Definition\\ConfigurationInterface</title>
<path fill="none" stroke="black" stroke-dasharray="1,5" d="M592.636,-1484C566.334,-1484 532.177,-1484 495.608,-1484"/>
<polygon fill="none" stroke="black" points="495.234,-1480.5 485.234,-1484 495.234,-1487.5 495.234,-1480.5"/>
</g>
<!-- \\Blogger\\BlogBundle\\Form\\EnquiryType -->
<g id="node6" class="node"><title>\\Blogger\\BlogBundle\\Form\\EnquiryType</title>
<polygon fill="none" stroke="black" points="690.5,-1368 599.5,-1368 599.5,-1332 690.5,-1332 690.5,-1368"/>
<text text-anchor="middle" x="645" y="-1347.2" font-family="Courier,monospace" font-size="11.00">EnquiryType</text>
</g>
<!-- \\Symfony\\Component\\Form\\AbstractType -->
<g id="node26" class="node"><title>\\Symfony\\Component\\Form\\AbstractType</title>
<ellipse fill="none" stroke="black" cx="247" cy="-982" rx="161.671" ry="18"/>
<text text-anchor="middle" x="247" y="-978.3" font-family="Times,serif" font-size="14.00" fill="gray">\Symfony\Component\Form\AbstractType</text>
</g>
<!-- \\Blogger\\BlogBundle\\Form\\EnquiryType&#45;&gt;\\Symfony\\Component\\Form\\AbstractType -->
<g id="edge6" class="edge"><title>\\Blogger\\BlogBundle\\Form\\EnquiryType&#45;&gt;\\Symfony\\Component\\Form\\AbstractType</title>
<path fill="none" stroke="black" d="M599.384,-1339.51C573.706,-1331.07 543.211,-1316.45 526,-1292 489.574,-1240.24 538.826,-1053.68 494,-1009 455.772,-970.897 395.823,-963.688 344.678,-966.228"/>
<polygon fill="none" stroke="black" points="344.337,-962.742 334.575,-966.86 344.774,-969.729 344.337,-962.742"/>
</g>
<!-- \\Blogger\\BlogBundle\\Tests\\Controller\\DefaultControllerTest -->
<g id="node7" class="node"><title>\\Blogger\\BlogBundle\\Tests\\Controller\\DefaultControllerTest</title>
<polygon fill="none" stroke="black" points="724,-1260 566,-1260 566,-1224 724,-1224 724,-1260"/>
<text text-anchor="middle" x="645" y="-1239.2" font-family="Courier,monospace" font-size="11.00">DefaultControllerTest</text>
</g>
<!-- \\Symfony\\Bundle\\FrameworkBundle\\Test\\WebTestCase -->
<g id="node27" class="node"><title>\\Symfony\\Bundle\\FrameworkBundle\\Test\\WebTestCase</title>
<ellipse fill="none" stroke="black" cx="247" cy="-928" rx="211.762" ry="18"/>
<text text-anchor="middle" x="247" y="-924.3" font-family="Times,serif" font-size="14.00" fill="gray">\Symfony\Bundle\FrameworkBundle\Test\WebTestCase</text>
</g>
<!-- \\Blogger\\BlogBundle\\Tests\\Controller\\DefaultControllerTest&#45;&gt;\\Symfony\\Bundle\\FrameworkBundle\\Test\\WebTestCase -->
<g id="edge7" class="edge"><title>\\Blogger\\BlogBundle\\Tests\\Controller\\DefaultControllerTest&#45;&gt;\\Symfony\\Bundle\\FrameworkBundle\\Test\\WebTestCase</title>
<path fill="none" stroke="black" d="M565.874,-1241.51C550.859,-1237.83 536.549,-1231.25 526,-1220 444.847,-1133.47 578.34,-1038.43 494,-955 485.873,-946.961 476.779,-940.301 467.005,-934.821"/>
<polygon fill="none" stroke="black" points="468.341,-931.573 457.847,-930.114 465.141,-937.798 468.341,-931.573"/>
</g>
<!-- \\Blogger\\BlogBundle\\BloggerBlogBundle -->
<g id="node8" class="node"><title>\\Blogger\\BlogBundle\\BloggerBlogBundle</title>
<polygon fill="none" stroke="black" points="710.5,-1200 579.5,-1200 579.5,-1164 710.5,-1164 710.5,-1200"/>
<text text-anchor="middle" x="645" y="-1179.2" font-family="Courier,monospace" font-size="11.00">BloggerBlogBundle</text>
</g>
<!-- \\Symfony\\Component\\HttpKernel\\Bundle\\Bundle -->
<g id="node23" class="node"><title>\\Symfony\\Component\\HttpKernel\\Bundle\\Bundle</title>
<ellipse fill="none" stroke="black" cx="247" cy="-874" rx="187.367" ry="18"/>
<text text-anchor="middle" x="247" y="-870.3" font-family="Times,serif" font-size="14.00" fill="gray">\Symfony\Component\HttpKernel\Bundle\Bundle</text>
</g>
<!-- \\Blogger\\BlogBundle\\BloggerBlogBundle&#45;&gt;\\Symfony\\Component\\HttpKernel\\Bundle\\Bundle -->
<g id="edge3" class="edge"><title>\\Blogger\\BlogBundle\\BloggerBlogBundle&#45;&gt;\\Symfony\\Component\\HttpKernel\\Bundle\\Bundle</title>
<path fill="none" stroke="black" d="M589.393,-1163.93C566.267,-1153.52 541.204,-1138.02 526,-1116 471.11,-1036.5 563.612,-967.987 494,-901 458.016,-866.373 403.996,-857.623 355.735,-858.391"/>
<polygon fill="none" stroke="black" points="355.425,-854.899 345.533,-858.694 355.633,-861.896 355.425,-854.899"/>
</g>
<!-- \\AppBundle\\Controller\\DefaultController -->
<g id="node9" class="node"><title>\\AppBundle\\Controller\\DefaultController</title>
<polygon fill="none" stroke="black" points="710.5,-1084 579.5,-1084 579.5,-1048 710.5,-1048 710.5,-1084"/>
<text text-anchor="middle" x="645" y="-1063.2" font-family="Courier,monospace" font-size="11.00">DefaultController</text>
</g>
<!-- \\AppBundle\\Controller\\DefaultController&#45;&gt;\\Symfony\\Bundle\\FrameworkBundle\\Controller\\Controller -->
<g id="edge8" class="edge"><title>\\AppBundle\\Controller\\DefaultController&#45;&gt;\\Symfony\\Bundle\\FrameworkBundle\\Controller\\Controller</title>
<path fill="none" stroke="black" d="M579.494,-1069.91C539.654,-1072.32 486.316,-1075.56 434.088,-1078.72"/>
<polygon fill="none" stroke="black" points="433.778,-1075.23 424.008,-1079.33 434.201,-1082.22 433.778,-1075.23"/>
</g>
<!-- \\AppBundle\\Tests\\Controller\\DefaultControllerTest -->
<g id="node10" class="node"><title>\\AppBundle\\Tests\\Controller\\DefaultControllerTest</title>
<polygon fill="none" stroke="black" points="724,-976 566,-976 566,-940 724,-940 724,-976"/>
<text text-anchor="middle" x="645" y="-955.2" font-family="Courier,monospace" font-size="11.00">DefaultControllerTest</text>
</g>
<!-- \\AppBundle\\Tests\\Controller\\DefaultControllerTest&#45;&gt;\\Symfony\\Bundle\\FrameworkBundle\\Test\\WebTestCase -->
<g id="edge10" class="edge"><title>\\AppBundle\\Tests\\Controller\\DefaultControllerTest&#45;&gt;\\Symfony\\Bundle\\FrameworkBundle\\Test\\WebTestCase</title>
<path fill="none" stroke="black" d="M565.763,-952.073C522.883,-948.824 467.998,-944.667 415.95,-940.723"/>
<polygon fill="none" stroke="black" points="416.161,-937.23 405.926,-939.964 415.633,-944.21 416.161,-937.23"/>
</g>
<!-- \\AppBundle\\AppBundle -->
<g id="node11" class="node"><title>\\AppBundle\\AppBundle</title>
<polygon fill="none" stroke="black" points="683.5,-916 606.5,-916 606.5,-880 683.5,-880 683.5,-916"/>
<text text-anchor="middle" x="645" y="-895.2" font-family="Courier,monospace" font-size="11.00">AppBundle</text>
</g>
<!-- \\AppBundle\\AppBundle&#45;&gt;\\Symfony\\Component\\HttpKernel\\Bundle\\Bundle -->
<g id="edge9" class="edge"><title>\\AppBundle\\AppBundle&#45;&gt;\\Symfony\\Component\\HttpKernel\\Bundle\\Bundle</title>
<path fill="none" stroke="black" d="M606.388,-895.721C562.409,-893.055 486.621,-888.462 416.034,-884.184"/>
<polygon fill="none" stroke="black" points="415.855,-880.667 405.662,-883.555 415.432,-887.654 415.855,-880.667"/>
</g>
<!-- \\Acme\\DemoBundle\\EventListener\\ControllerListener -->
<g id="node12" class="node"><title>\\Acme\\DemoBundle\\EventListener\\ControllerListener</title>
<polygon fill="none" stroke="black" points="714,-780 576,-780 576,-744 714,-744 714,-780"/>
<text text-anchor="middle" x="645" y="-759.2" font-family="Courier,monospace" font-size="11.00">ControllerListener</text>
</g>
<!-- \\Acme\\DemoBundle\\Command\\HelloWorldCommand -->
<g id="node13" class="node"><title>\\Acme\\DemoBundle\\Command\\HelloWorldCommand</title>
<polygon fill="none" stroke="black" points="710.5,-192 579.5,-192 579.5,-156 710.5,-156 710.5,-192"/>
<text text-anchor="middle" x="645" y="-171.2" font-family="Courier,monospace" font-size="11.00">HelloWorldCommand</text>
</g>
<!-- \\Symfony\\Component\\Console\\Command\\Command -->
<g id="node28" class="node"><title>\\Symfony\\Component\\Console\\Command\\Command</title>
<ellipse fill="none" stroke="black" cx="247" cy="-174" rx="200.665" ry="18"/>
<text text-anchor="middle" x="247" y="-170.3" font-family="Times,serif" font-size="14.00" fill="gray">\Symfony\Component\Console\Command\Command</text>
</g>
<!-- \\Acme\\DemoBundle\\Command\\HelloWorldCommand&#45;&gt;\\Symfony\\Component\\Console\\Command\\Command -->
<g id="edge11" class="edge"><title>\\Acme\\DemoBundle\\Command\\HelloWorldCommand&#45;&gt;\\Symfony\\Component\\Console\\Command\\Command</title>
<path fill="none" stroke="black" d="M579.494,-174C545.773,-174 502.383,-174 458.18,-174"/>
<polygon fill="none" stroke="black" points="458.14,-170.5 448.14,-174 458.14,-177.5 458.14,-170.5"/>
</g>
<!-- \\Acme\\DemoBundle\\Controller\\SecuredController -->
<g id="node14" class="node"><title>\\Acme\\DemoBundle\\Controller\\SecuredController</title>
<polygon fill="none" stroke="black" points="710.5,-700 579.5,-700 579.5,-664 710.5,-664 710.5,-700"/>
<text text-anchor="middle" x="645" y="-679.2" font-family="Courier,monospace" font-size="11.00">SecuredController</text>
</g>
<!-- \\Acme\\DemoBundle\\Controller\\SecuredController&#45;&gt;\\Symfony\\Bundle\\FrameworkBundle\\Controller\\Controller -->
<g id="edge12" class="edge"><title>\\Acme\\DemoBundle\\Controller\\SecuredController&#45;&gt;\\Symfony\\Bundle\\FrameworkBundle\\Controller\\Controller</title>
<path fill="none" stroke="black" d="M579.382,-695.541C559.218,-702.976 538.902,-714.423 526,-732 482.273,-791.573 545.915,-1010.41 494,-1063 486.999,-1070.09 479.248,-1076.12 470.94,-1081.22"/>
<polygon fill="none" stroke="black" points="469.085,-1078.25 462.088,-1086.2 472.519,-1084.35 469.085,-1078.25"/>
</g>
<!-- \\Acme\\DemoBundle\\Controller\\DemoController -->
<g id="node15" class="node"><title>\\Acme\\DemoBundle\\Controller\\DemoController</title>
<polygon fill="none" stroke="black" points="700.5,-646 589.5,-646 589.5,-610 700.5,-610 700.5,-646"/>
<text text-anchor="middle" x="645" y="-625.2" font-family="Courier,monospace" font-size="11.00">DemoController</text>
</g>
<!-- \\Acme\\DemoBundle\\Controller\\DemoController&#45;&gt;\\Symfony\\Bundle\\FrameworkBundle\\Controller\\Controller -->
<g id="edge13" class="edge"><title>\\Acme\\DemoBundle\\Controller\\DemoController&#45;&gt;\\Symfony\\Bundle\\FrameworkBundle\\Controller\\Controller</title>
<path fill="none" stroke="black" d="M589.201,-627.034C566.326,-629.655 541.517,-637.023 526,-655 466.577,-723.847 557.302,-997.702 494,-1063 487.064,-1070.15 479.365,-1076.23 471.1,-1081.38"/>
<polygon fill="none" stroke="black" points="469.242,-1078.41 462.289,-1086.4 472.709,-1084.49 469.242,-1078.41"/>
</g>
<!-- \\Acme\\DemoBundle\\Controller\\WelcomeController -->
<g id="node16" class="node"><title>\\Acme\\DemoBundle\\Controller\\WelcomeController</title>
<polygon fill="none" stroke="black" points="710.5,-592 579.5,-592 579.5,-556 710.5,-556 710.5,-592"/>
<text text-anchor="middle" x="645" y="-571.2" font-family="Courier,monospace" font-size="11.00">WelcomeController</text>
</g>
<!-- \\Acme\\DemoBundle\\Controller\\WelcomeController&#45;&gt;\\Symfony\\Bundle\\FrameworkBundle\\Controller\\Controller -->
<g id="edge14" class="edge"><title>\\Acme\\DemoBundle\\Controller\\WelcomeController&#45;&gt;\\Symfony\\Bundle\\FrameworkBundle\\Controller\\Controller</title>
<path fill="none" stroke="black" d="M579.318,-574.38C559.399,-577.879 539.249,-585.508 526,-601 459.113,-679.212 565.294,-988.783 494,-1063 458.287,-1100.18 402.013,-1108.44 352.295,-1106.72"/>
<polygon fill="none" stroke="black" points="352.279,-1103.21 342.122,-1106.23 351.941,-1110.2 352.279,-1103.21"/>
</g>
<!-- \\Acme\\DemoBundle\\Twig\\Extension\\DemoExtension -->
<g id="node17" class="node"><title>\\Acme\\DemoBundle\\Twig\\Extension\\DemoExtension</title>
<polygon fill="none" stroke="black" points="697,-84 593,-84 593,-48 697,-48 697,-84"/>
<text text-anchor="middle" x="645" y="-63.2" font-family="Courier,monospace" font-size="11.00">DemoExtension</text>
</g>
<!-- \\Twig_Extension -->
<g id="node29" class="node"><title>\\Twig_Extension</title>
<ellipse fill="none" stroke="black" cx="247" cy="-66" rx="71.4873" ry="18"/>
<text text-anchor="middle" x="247" y="-62.3" font-family="Times,serif" font-size="14.00" fill="gray">\Twig_Extension</text>
</g>
<!-- \\Acme\\DemoBundle\\Twig\\Extension\\DemoExtension&#45;&gt;\\Twig_Extension -->
<g id="edge16" class="edge"><title>\\Acme\\DemoBundle\\Twig\\Extension\\DemoExtension&#45;&gt;\\Twig_Extension</title>
<path fill="none" stroke="black" d="M592.636,-66C525.742,-66 408.046,-66 329.054,-66"/>
<polygon fill="none" stroke="black" points="328.656,-62.5001 318.656,-66 328.656,-69.5001 328.656,-62.5001"/>
</g>
<!-- \\Acme\\DemoBundle\\DependencyInjection\\AcmeDemoExtension -->
<g id="node18" class="node"><title>\\Acme\\DemoBundle\\DependencyInjection\\AcmeDemoExtension</title>
<polygon fill="none" stroke="black" points="710.5,-512 579.5,-512 579.5,-476 710.5,-476 710.5,-512"/>
<text text-anchor="middle" x="645" y="-491.2" font-family="Courier,monospace" font-size="11.00">AcmeDemoExtension</text>
</g>
<!-- \\Acme\\DemoBundle\\DependencyInjection\\AcmeDemoExtension&#45;&gt;\\Symfony\\Component\\HttpKernel\\DependencyInjection\\Extension -->
<g id="edge17" class="edge"><title>\\Acme\\DemoBundle\\DependencyInjection\\AcmeDemoExtension&#45;&gt;\\Symfony\\Component\\HttpKernel\\DependencyInjection\\Extension</title>
<path fill="none" stroke="black" d="M579.411,-507.226C559.124,-514.64 538.722,-526.155 526,-544 465.872,-628.338 565.738,-934.288 494,-1009 489.152,-1014.05 483.924,-1018.57 478.385,-1022.6"/>
<polygon fill="none" stroke="black" points="476.427,-1019.69 470.055,-1028.16 480.315,-1025.52 476.427,-1019.69"/>
</g>
<!-- \\Acme\\DemoBundle\\Form\\ContactType -->
<g id="node19" class="node"><title>\\Acme\\DemoBundle\\Form\\ContactType</title>
<polygon fill="none" stroke="black" points="690.5,-432 599.5,-432 599.5,-396 690.5,-396 690.5,-432"/>
<text text-anchor="middle" x="645" y="-411.2" font-family="Courier,monospace" font-size="11.00">ContactType</text>
</g>
<!-- \\Acme\\DemoBundle\\Form\\ContactType&#45;&gt;\\Symfony\\Component\\Form\\AbstractType -->
<g id="edge18" class="edge"><title>\\Acme\\DemoBundle\\Form\\ContactType&#45;&gt;\\Symfony\\Component\\Form\\AbstractType</title>
<path fill="none" stroke="black" d="M599.44,-421.049C573.613,-427.605 542.941,-440.146 526,-464 462.687,-553.147 569.588,-875.992 494,-955 455.564,-995.175 393.125,-1001.63 340.772,-998.195"/>
<polygon fill="none" stroke="black" points="341.028,-994.704 330.785,-997.413 340.481,-1001.68 341.028,-994.704"/>
</g>
<!-- \\Acme\\DemoBundle\\Tests\\Controller\\DemoControllerTest -->
<g id="node20" class="node"><title>\\Acme\\DemoBundle\\Tests\\Controller\\DemoControllerTest</title>
<polygon fill="none" stroke="black" points="714,-324 576,-324 576,-288 714,-288 714,-324"/>
<text text-anchor="middle" x="645" y="-303.2" font-family="Courier,monospace" font-size="11.00">DemoControllerTest</text>
</g>
<!-- \\Acme\\DemoBundle\\Tests\\Controller\\DemoControllerTest&#45;&gt;\\Symfony\\Bundle\\FrameworkBundle\\Test\\WebTestCase -->
<g id="edge19" class="edge"><title>\\Acme\\DemoBundle\\Tests\\Controller\\DemoControllerTest&#45;&gt;\\Symfony\\Bundle\\FrameworkBundle\\Test\\WebTestCase</title>
<path fill="none" stroke="black" d="M597.997,-324.001C572.16,-336.681 541.981,-356.363 526,-384 468.379,-483.649 573.438,-817.696 494,-901 457.939,-938.816 400.618,-946.795 350.378,-944.751"/>
<polygon fill="none" stroke="black" points="350.28,-941.241 340.104,-944.193 349.9,-948.231 350.28,-941.241"/>
</g>
<!-- \\Acme\\DemoBundle\\AcmeDemoBundle -->
<g id="node21" class="node"><title>\\Acme\\DemoBundle\\AcmeDemoBundle</title>
<polygon fill="none" stroke="black" points="700.5,-264 589.5,-264 589.5,-228 700.5,-228 700.5,-264"/>
<text text-anchor="middle" x="645" y="-243.2" font-family="Courier,monospace" font-size="11.00">AcmeDemoBundle</text>
</g>
<!-- \\Acme\\DemoBundle\\AcmeDemoBundle&#45;&gt;\\Symfony\\Component\\HttpKernel\\Bundle\\Bundle -->
<g id="edge15" class="edge"><title>\\Acme\\DemoBundle\\AcmeDemoBundle&#45;&gt;\\Symfony\\Component\\HttpKernel\\Bundle\\Bundle</title>
<path fill="none" stroke="black" d="M589.204,-249.822C567.54,-253.742 543.655,-261.361 526,-276 335.91,-433.624 268.793,-750.136 252.369,-845.91"/>
<polygon fill="none" stroke="black" points="248.882,-845.539 250.691,-855.978 255.787,-846.689 248.882,-845.539"/>
</g>
</g>
</svg>
